# 3ds Max Wavefront OBJ Exporter v0.97b - (c)2007 guruware
# File Created: 13.08.2018 21:43:36

#
# object Box061
#

v  -2.1275 -5.6635 54.4856
v  -3.8013 -9.5188 53.9250
v  -2.1430 -13.7083 54.6390
v  6.3931 -17.8987 57.9700
v  9.6002 -10.5117 59.0441
v  7.4061 -4.9686 58.0994
v  4.3606 -3.4735 56.9109
v  -9.8397 -3.9576 -0.1311
v  -7.4715 -7.0508 20.9305
v  -5.8420 5.2501 1.2076
v  3.9184 -9.6808 -1.8518
v  9.8397 3.9576 0.1311
v  9.8981 0.1291 20.2688
v  0.5512 7.8215 1.2928
# 14 vertices

vn -0.0577 -0.1191 0.9912
vn -0.9614 -0.0442 0.2717
vn -0.9062 0.3615 0.2194
vn -0.3880 -0.9208 -0.0395
vn -0.3976 -0.9149 -0.0702
vn -0.4704 -0.8801 0.0644
vn 0.9827 -0.1461 0.1141
vn 0.9181 -0.3958 -0.0192
vn 0.3982 0.8882 0.2294
vn 0.3904 0.9001 0.1934
vn 0.5053 0.8147 0.2843
vn 0.8740 0.3129 0.3719
vn -0.3728 0.8743 0.3108
vn -0.3574 0.8780 0.3185
vn -0.8714 -0.3781 0.3126
# 15 vertex normals

vt 0.5656 0.3750 0.0000
vt 0.6414 0.4377 0.0000
vt 0.6509 0.5376 0.0000
vt 0.5163 0.7005 0.0000
vt 0.3711 0.5805 0.0000
vt 0.3585 0.4483 0.0000
vt 0.4065 0.3901 0.0000
vt 0.9229 0.2600 0.0000
vt 0.8280 0.3444 0.0000
vt 0.7419 0.1103 0.0000
vt 0.9808 0.6257 0.0000
vt 0.7926 0.9183 0.0000
vt 0.8639 0.5758 0.0000
vt 0.0503 0.7698 0.0000
vt 0.1400 0.6887 0.0000
vt 0.3184 0.9914 0.0000
vt 0.0333 0.2891 0.0000
vt 0.2040 0.1278 0.0000
vt 0.1286 0.3636 0.0000
vt 0.1237 0.5181 0.0000
vt 0.4033 0.0587 0.0000
vt 0.5631 0.0571 0.0000
vt 0.8495 0.4516 0.0000
# 23 texture coords

g Box061
f 1/1/1 2/2/1 3/3/1 
f 1/1/1 3/3/1 4/4/1 
f 4/4/1 5/5/1 6/6/1 
f 1/1/1 4/4/1 6/6/1 
f 7/7/1 1/1/1 6/6/1 
f 8/8/2 9/9/2 2/2/2 
f 10/10/3 8/8/3 2/2/3 
f 10/10/3 2/2/3 1/1/3 
f 8/11/4 11/12/4 4/4/4 
f 4/4/5 3/3/5 9/13/5 
f 8/11/6 4/4/6 9/13/6 
f 12/14/7 13/15/7 5/5/7 
f 11/16/8 12/14/8 5/5/8 
f 11/16/8 5/5/8 4/4/8 
f 12/17/9 14/18/9 7/7/9 
f 7/7/10 6/6/10 13/19/10 
f 12/17/11 7/7/11 13/19/11 
f 13/20/12 6/6/12 5/5/12 
f 1/1/13 7/7/13 14/21/13 
f 14/21/14 10/22/14 1/1/14 
f 9/23/15 3/3/15 2/2/15 
# 21 faces

