# 3ds Max Wavefront OBJ Exporter v0.97b - (c)2007 guruware
# File Created: 13.08.2018 21:58:58

#
# object Cylinder040
#

v  -6.4084 0.9829 0.1733
v  -6.4084 0.7646 0.6416
v  -1.5675 0.4287 0.3597
v  -1.5675 0.5511 0.0972
v  -6.4084 0.3414 0.9379
v  -1.5675 0.1914 0.5258
v  -6.4084 -0.1733 0.9829
v  -1.5675 -0.0972 0.5511
v  -6.4084 -0.6416 0.7646
v  -1.5675 -0.3597 0.4287
v  -6.4084 -0.9379 0.3414
v  -1.5675 -0.5258 0.1914
v  -6.4084 -0.9829 -0.1733
v  -1.5675 -0.5511 -0.0972
v  -6.4084 -0.7646 -0.6416
v  -1.5675 -0.4287 -0.3597
v  -6.4084 -0.3414 -0.9379
v  -1.5675 -0.1914 -0.5258
v  -6.4084 0.1733 -0.9829
v  -1.5675 0.0972 -0.5511
v  -6.4084 0.6416 -0.7646
v  -1.5675 0.3597 -0.4287
v  -6.4084 0.9379 -0.3414
v  -1.5675 0.5258 -0.1914
# 24 vertices

vn 0.1952 0.9659 0.1703
vn 0.1952 0.7513 0.6304
vn 0.1952 0.3354 0.9216
vn 0.1952 -0.1703 0.9659
vn 0.1952 -0.6304 0.7513
vn 0.1952 -0.9216 0.3354
vn 0.1952 -0.9659 -0.1703
vn 0.1952 -0.7513 -0.6304
vn 0.1952 -0.3354 -0.9216
vn 0.1952 0.1703 -0.9659
vn 0.1952 0.6304 -0.7513
vn 0.1952 0.9216 -0.3354
# 12 vertex normals

vt 0.0894 0.3683 0.0000
vt 0.0487 0.2693 0.0000
vt 0.4874 0.1143 0.0000
vt 0.5103 0.1698 0.0000
vt 0.0182 0.1668 0.0000
vt 0.4703 0.0568 0.0000
vt 0.9213 0.9681 0.0000
vt 0.8158 0.9500 0.0000
vt 0.9175 0.4959 0.0000
vt 0.9766 0.5061 0.0000
vt 0.7127 0.9213 0.0000
vt 0.8597 0.4799 0.0000
vt 0.6130 0.8824 0.0000
vt 0.8038 0.4581 0.0000
vt 0.5178 0.8337 0.0000
vt 0.7504 0.4307 0.0000
vt 0.4279 0.7756 0.0000
vt 0.7000 0.3982 0.0000
vt 0.3444 0.7087 0.0000
vt 0.6532 0.3607 0.0000
vt 0.2680 0.6337 0.0000
vt 0.6104 0.3186 0.0000
vt 0.1996 0.5514 0.0000
vt 0.5721 0.2725 0.0000
vt 0.1399 0.4626 0.0000
vt 0.5386 0.2227 0.0000
# 26 texture coords

g Cylinder040
f 1/1/1 2/2/2 3/3/2 
f 3/3/2 4/4/1 1/1/1 
f 2/2/2 5/5/3 6/6/3 
f 6/6/3 3/3/2 2/2/2 
f 5/7/3 7/8/4 8/9/4 
f 8/9/4 6/10/3 5/7/3 
f 7/8/4 9/11/5 10/12/5 
f 10/12/5 8/9/4 7/8/4 
f 9/11/5 11/13/6 12/14/6 
f 12/14/6 10/12/5 9/11/5 
f 11/13/6 13/15/7 14/16/7 
f 14/16/7 12/14/6 11/13/6 
f 13/15/7 15/17/8 16/18/8 
f 16/18/8 14/16/7 13/15/7 
f 15/17/8 17/19/9 18/20/9 
f 18/20/9 16/18/8 15/17/8 
f 17/19/9 19/21/10 20/22/10 
f 20/22/10 18/20/9 17/19/9 
f 19/21/10 21/23/11 22/24/11 
f 22/24/11 20/22/10 19/21/10 
f 21/23/11 23/25/12 24/26/12 
f 24/26/12 22/24/11 21/23/11 
f 23/25/12 1/1/1 4/4/1 
f 4/4/1 24/26/12 23/25/12 
# 24 faces

#
# object Cylinder033
#

v  -7.6926 -0.0000 -5.6619
v  -7.6926 2.8310 -4.9034
v  -0.2833 0.9409 -1.6296
v  -0.2833 -0.0000 -1.8817
v  -7.6926 4.9034 -2.8310
v  -0.2833 1.6296 -0.9409
v  -7.6926 5.6619 0.0000
v  -0.2833 1.8817 0.0000
v  -7.6926 4.9034 2.8310
v  -0.2833 1.6296 0.9409
v  -7.6926 2.8310 4.9034
v  -0.2833 0.9409 1.6296
v  -7.6926 0.0000 5.6619
v  -0.2833 -0.0000 1.8817
v  -7.6926 -2.8310 4.9034
v  -0.2833 -0.9409 1.6296
v  -7.6926 -4.9034 2.8310
v  -0.2833 -1.6296 0.9409
v  -7.6926 -5.6619 0.0000
v  -0.2833 -1.8817 0.0000
v  -7.6926 -4.9034 -2.8310
v  -0.2833 -1.6296 -0.9409
v  -7.6926 -2.8310 -4.9034
v  -0.2833 -0.9409 -1.6296
# 24 vertices

vn 0.4545 -0.0000 -0.8908
vn 0.4545 0.4454 -0.7714
vn 0.4545 0.7714 -0.4454
vn 0.4545 0.8908 0.0000
vn 0.4545 0.7714 0.4454
vn 0.4545 0.4454 0.7714
vn 0.4545 0.0000 0.8908
vn 0.4545 -0.4454 0.7714
vn 0.4545 -0.7714 0.4454
vn 0.4545 -0.8908 0.0000
vn 0.4545 -0.7714 -0.4454
vn 0.4545 -0.4454 -0.7714
# 12 vertex normals

vt 0.0894 0.3683 0.0000
vt 0.0487 0.2693 0.0000
vt 0.4874 0.1143 0.0000
vt 0.5103 0.1698 0.0000
vt 0.0182 0.1668 0.0000
vt 0.4703 0.0568 0.0000
vt 0.9213 0.9681 0.0000
vt 0.8158 0.9500 0.0000
vt 0.9175 0.4959 0.0000
vt 0.9766 0.5061 0.0000
vt 0.7127 0.9213 0.0000
vt 0.8597 0.4799 0.0000
vt 0.6130 0.8824 0.0000
vt 0.8038 0.4581 0.0000
vt 0.5178 0.8337 0.0000
vt 0.7504 0.4307 0.0000
vt 0.4279 0.7756 0.0000
vt 0.7000 0.3982 0.0000
vt 0.3444 0.7087 0.0000
vt 0.6532 0.3607 0.0000
vt 0.2680 0.6337 0.0000
vt 0.6104 0.3186 0.0000
vt 0.1996 0.5514 0.0000
vt 0.5721 0.2725 0.0000
vt 0.1399 0.4626 0.0000
vt 0.5386 0.2227 0.0000
# 26 texture coords

g Cylinder033
f 25/27/13 26/28/14 27/29/14 
f 27/29/14 28/30/13 25/27/13 
f 26/28/14 29/31/15 30/32/15 
f 30/32/15 27/29/14 26/28/14 
f 29/33/15 31/34/16 32/35/16 
f 32/35/16 30/36/15 29/33/15 
f 31/34/16 33/37/17 34/38/17 
f 34/38/17 32/35/16 31/34/16 
f 33/37/17 35/39/18 36/40/18 
f 36/40/18 34/38/17 33/37/17 
f 35/39/18 37/41/19 38/42/19 
f 38/42/19 36/40/18 35/39/18 
f 37/41/19 39/43/20 40/44/20 
f 40/44/20 38/42/19 37/41/19 
f 39/43/20 41/45/21 42/46/21 
f 42/46/21 40/44/20 39/43/20 
f 41/45/21 43/47/22 44/48/22 
f 44/48/22 42/46/21 41/45/21 
f 43/47/22 45/49/23 46/50/23 
f 46/50/23 44/48/22 43/47/22 
f 45/49/23 47/51/24 48/52/24 
f 48/52/24 46/50/23 45/49/23 
f 47/51/24 25/27/13 28/30/13 
f 28/30/13 48/52/24 47/51/24 
# 24 faces

#
# object Cylinder035
#

v  -7.7108 2.3399 -0.4116
v  -7.7108 2.2329 0.8107
v  0.0841 1.2543 0.4545
v  0.0841 1.3143 -0.2308
v  -7.7108 1.5292 1.8157
v  0.0841 0.8598 1.0180
v  -7.7108 0.4172 2.3343
v  0.0841 0.2364 1.3087
v  -7.7108 -0.8051 2.2273
v  0.0841 -0.4489 1.2487
v  -7.7108 -1.8101 1.5236
v  0.0841 -1.0124 0.8542
v  -7.7108 -2.3286 0.4116
v  0.0841 -1.3031 0.2308
v  -7.7108 -2.2217 -0.8107
v  0.0841 -1.2431 -0.4545
v  -7.7108 -1.5180 -1.8157
v  0.0841 -0.8486 -1.0180
v  -7.7108 -0.4060 -2.3343
v  0.0841 -0.2251 -1.3087
v  -7.7108 0.8163 -2.2273
v  0.0841 0.4601 -1.2487
v  -7.7108 1.8213 -1.5236
v  0.0841 1.0236 -0.8542
# 24 vertices

vn 0.1952 0.9659 -0.1703
vn 0.1952 0.9216 0.3354
vn 0.1952 0.6304 0.7513
vn 0.1952 0.1703 0.9659
vn 0.1952 -0.3354 0.9216
vn 0.1952 -0.7513 0.6304
vn 0.1952 -0.9659 0.1703
vn 0.1952 -0.9216 -0.3354
vn 0.1952 -0.6304 -0.7513
vn 0.1952 -0.1703 -0.9659
vn 0.1952 0.3354 -0.9216
vn 0.1952 0.7513 -0.6304
# 12 vertex normals

vt 0.0894 0.3683 0.0000
vt 0.0487 0.2693 0.0000
vt 0.4874 0.1143 0.0000
vt 0.5103 0.1698 0.0000
vt 0.0182 0.1668 0.0000
vt 0.4703 0.0568 0.0000
vt 0.9213 0.9681 0.0000
vt 0.8158 0.9500 0.0000
vt 0.9175 0.4959 0.0000
vt 0.9766 0.5061 0.0000
vt 0.7127 0.9213 0.0000
vt 0.8597 0.4799 0.0000
vt 0.6130 0.8824 0.0000
vt 0.8038 0.4581 0.0000
vt 0.5178 0.8337 0.0000
vt 0.7504 0.4307 0.0000
vt 0.4279 0.7756 0.0000
vt 0.7000 0.3982 0.0000
vt 0.3444 0.7087 0.0000
vt 0.6532 0.3607 0.0000
vt 0.2680 0.6337 0.0000
vt 0.6104 0.3186 0.0000
vt 0.1996 0.5514 0.0000
vt 0.5721 0.2725 0.0000
vt 0.1399 0.4626 0.0000
vt 0.5386 0.2227 0.0000
# 26 texture coords

g Cylinder035
f 49/53/25 50/54/26 51/55/26 
f 51/55/26 52/56/25 49/53/25 
f 50/54/26 53/57/27 54/58/27 
f 54/58/27 51/55/26 50/54/26 
f 53/59/27 55/60/28 56/61/28 
f 56/61/28 54/62/27 53/59/27 
f 55/60/28 57/63/29 58/64/29 
f 58/64/29 56/61/28 55/60/28 
f 57/63/29 59/65/30 60/66/30 
f 60/66/30 58/64/29 57/63/29 
f 59/65/30 61/67/31 62/68/31 
f 62/68/31 60/66/30 59/65/30 
f 61/67/31 63/69/32 64/70/32 
f 64/70/32 62/68/31 61/67/31 
f 63/69/32 65/71/33 66/72/33 
f 66/72/33 64/70/32 63/69/32 
f 65/71/33 67/73/34 68/74/34 
f 68/74/34 66/72/33 65/71/33 
f 67/73/34 69/75/35 70/76/35 
f 70/76/35 68/74/34 67/73/34 
f 69/75/35 71/77/36 72/78/36 
f 72/78/36 70/76/35 69/75/35 
f 71/77/36 49/53/25 52/56/25 
f 52/56/25 72/78/36 71/77/36 
# 24 faces

#
# object Cylinder037
#

v  -6.8030 0.9103 1.3001
v  -6.8030 0.1383 1.5811
v  -1.1729 0.0776 0.8864
v  -1.1729 0.5104 0.7289
v  -6.8030 -0.6708 1.4384
v  -1.1729 -0.3761 0.8064
v  -6.8030 -1.3001 0.9103
v  -1.1729 -0.7289 0.5104
v  -6.8030 -1.5811 0.1383
v  -1.1729 -0.8864 0.0776
v  -6.8030 -1.4384 -0.6708
v  -1.1729 -0.8064 -0.3761
v  -6.8030 -0.9103 -1.3001
v  -1.1729 -0.5104 -0.7289
v  -6.8030 -0.1383 -1.5811
v  -1.1729 -0.0776 -0.8864
v  -6.8030 0.6708 -1.4384
v  -1.1729 0.3760 -0.8064
v  -6.8030 1.3001 -0.9103
v  -1.1729 0.7289 -0.5104
v  -6.8030 1.5811 -0.1383
v  -1.1729 0.8864 -0.0776
v  -6.8030 1.4384 0.6708
v  -1.1729 0.8064 0.3760
# 24 vertices

vn 0.1952 0.5625 0.8034
vn 0.1952 0.0855 0.9770
vn 0.1952 -0.4145 0.8889
vn 0.1952 -0.8034 0.5625
vn 0.1952 -0.9770 0.0855
vn 0.1952 -0.8889 -0.4145
vn 0.1952 -0.5625 -0.8034
vn 0.1952 -0.0855 -0.9770
vn 0.1952 0.4145 -0.8889
vn 0.1952 0.8034 -0.5625
vn 0.1952 0.9770 -0.0855
vn 0.1952 0.8889 0.4145
# 12 vertex normals

vt 0.0894 0.3683 0.0000
vt 0.0487 0.2693 0.0000
vt 0.4874 0.1143 0.0000
vt 0.5103 0.1698 0.0000
vt 0.0182 0.1668 0.0000
vt 0.4703 0.0568 0.0000
vt 0.9213 0.9681 0.0000
vt 0.8158 0.9500 0.0000
vt 0.9175 0.4959 0.0000
vt 0.9766 0.5061 0.0000
vt 0.7127 0.9213 0.0000
vt 0.8597 0.4799 0.0000
vt 0.6130 0.8824 0.0000
vt 0.8038 0.4581 0.0000
vt 0.5178 0.8337 0.0000
vt 0.7504 0.4307 0.0000
vt 0.4279 0.7756 0.0000
vt 0.7000 0.3982 0.0000
vt 0.3444 0.7087 0.0000
vt 0.6532 0.3607 0.0000
vt 0.2680 0.6337 0.0000
vt 0.6104 0.3186 0.0000
vt 0.1996 0.5514 0.0000
vt 0.5721 0.2725 0.0000
vt 0.1399 0.4626 0.0000
vt 0.5386 0.2227 0.0000
# 26 texture coords

g Cylinder037
f 73/79/37 74/80/38 75/81/38 
f 75/81/38 76/82/37 73/79/37 
f 74/80/38 77/83/39 78/84/39 
f 78/84/39 75/81/38 74/80/38 
f 77/85/39 79/86/40 80/87/40 
f 80/87/40 78/88/39 77/85/39 
f 79/86/40 81/89/41 82/90/41 
f 82/90/41 80/87/40 79/86/40 
f 81/89/41 83/91/42 84/92/42 
f 84/92/42 82/90/41 81/89/41 
f 83/91/42 85/93/43 86/94/43 
f 86/94/43 84/92/42 83/91/42 
f 85/93/43 87/95/44 88/96/44 
f 88/96/44 86/94/43 85/93/43 
f 87/95/44 89/97/45 90/98/45 
f 90/98/45 88/96/44 87/95/44 
f 89/97/45 91/99/46 92/100/46 
f 92/100/46 90/98/45 89/97/45 
f 91/99/46 93/101/47 94/102/47 
f 94/102/47 92/100/46 91/99/46 
f 93/101/47 95/103/48 96/104/48 
f 96/104/48 94/102/47 93/101/47 
f 95/103/48 73/79/37 76/82/37 
f 76/82/37 96/104/48 95/103/48 
# 24 faces

